<svg width="47" height="89" viewBox="0 0 47 89" fill="none" xmlns="http://www.w3.org/2000/svg">
<g clip-path="url(#clip0_24_277)">
<path d="M41.7778 0H5.22222C2.88267 0 0 2.89528 0 5.5625V83.4347C0 85.9601 2.72339 89 5.22222 89H41.7778C44.2583 89 47 86.152 47 83.4347V5.5625C47 2.89528 44.1983 0 41.7778 0Z" fill="#4B4A4D"/>
<path fill-rule="evenodd" clip-rule="evenodd" d="M26.268 41C25.526 41.0252 24.6265 41.4013 24.0953 41.9085C23.6149 42.3577 23.1985 43.077 23.3106 43.7659C24.1407 43.8189 24.9841 43.4227 25.4993 42.9155C26.0117 42.4107 26.3614 41.7041 26.268 41ZM26.1692 48.571C26.1692 45.5729 28.4353 45.4442 28.494 45.4038C28.2237 45.0366 27.8665 44.7342 27.4509 44.5204C27.0353 44.3066 26.5727 44.1874 26.0998 44.1722C25.0775 44.0713 24.106 44.7426 23.5882 44.7426C23.073 44.7426 22.2723 44.1849 21.4235 44.2C20.8664 44.2146 20.323 44.3664 19.8469 44.6403C19.3709 44.9143 18.9787 45.301 18.709 45.7621C17.5506 47.67 18.4128 50.494 19.5418 52.0385C20.0943 52.7956 20.7482 53.6461 21.6104 53.6133C22.4431 53.583 22.7581 53.1035 23.7617 53.1035C24.7653 53.1035 25.0455 53.6133 25.9263 53.6006C26.8205 53.583 27.3863 52.8259 27.9335 52.0688C28.5661 51.1905 28.825 50.3401 28.841 50.2972C28.8196 50.2896 26.1692 50.4562 26.1692 48.571Z" fill="#2B3031"/>
<g filter="url(#filter0_d_24_277)">
<g filter="url(#filter1_d_24_277)">
<path d="M9 13C11.7614 13 14 10.7614 14 8C14 5.23858 11.7614 3 9 3C6.23858 3 4 5.23858 4 8C4 10.7614 6.23858 13 9 13Z" fill="black"/>
<path d="M9 3.15039C11.6786 3.15039 13.8496 5.32142 13.8496 8C13.8496 10.6786 11.6786 12.8496 9 12.8496C6.32142 12.8496 4.15039 10.6786 4.15039 8C4.15039 5.32142 6.32142 3.15039 9 3.15039Z" stroke="#353739" stroke-width="0.3"/>
</g>
<path d="M16.5 8.5C16.7761 8.5 17 8.27614 17 8C17 7.72386 16.7761 7.5 16.5 7.5C16.2239 7.5 16 7.72386 16 8C16 8.27614 16.2239 8.5 16.5 8.5Z" fill="#3D3D3D"/>
<path d="M19 8C19 9.10457 19.8954 10 21 10C22.1046 10 23 9.10457 23 8C23 6.89543 22.1046 6 21 6C19.8954 6 19 6.89543 19 8Z" fill="#DEDEDE"/>
</g>
</g>
<defs>
<filter id="filter0_d_24_277" x="2" y="2" width="23" height="12" filterUnits="userSpaceOnUse" color-interpolation-filters="sRGB">
<feFlood flood-opacity="0" result="BackgroundImageFix"/>
<feColorMatrix in="SourceAlpha" type="matrix" values="0 0 0 0 0 0 0 0 0 0 0 0 0 0 0 0 0 0 127 0" result="hardAlpha"/>
<feMorphology radius="153" operator="erode" in="SourceAlpha" result="effect1_dropShadow_24_277"/>
<feOffset/>
<feGaussianBlur stdDeviation="0.5"/>
<feComposite in2="hardAlpha" operator="out"/>
<feColorMatrix type="matrix" values="0 0 0 0 0 0 0 0 0 0 0 0 0 0 0 0 0 0 0.34 0"/>
<feBlend mode="normal" in2="BackgroundImageFix" result="effect1_dropShadow_24_277"/>
<feBlend mode="normal" in="SourceGraphic" in2="effect1_dropShadow_24_277" result="shape"/>
</filter>
<filter id="filter1_d_24_277" x="3" y="2" width="12" height="12" filterUnits="userSpaceOnUse" color-interpolation-filters="sRGB">
<feFlood flood-opacity="0" result="BackgroundImageFix"/>
<feColorMatrix in="SourceAlpha" type="matrix" values="0 0 0 0 0 0 0 0 0 0 0 0 0 0 0 0 0 0 127 0" result="hardAlpha"/>
<feOffset/>
<feGaussianBlur stdDeviation="0.5"/>
<feComposite in2="hardAlpha" operator="out"/>
<feColorMatrix type="matrix" values="0 0 0 0 0 0 0 0 0 0 0 0 0 0 0 0 0 0 0.5 0"/>
<feBlend mode="normal" in2="BackgroundImageFix" result="effect1_dropShadow_24_277"/>
<feBlend mode="normal" in="SourceGraphic" in2="effect1_dropShadow_24_277" result="shape"/>
</filter>
<clipPath id="clip0_24_277">
<rect width="47" height="89" fill="white"/>
</clipPath>
</defs>
</svg>
