<svg width="47" height="89" viewBox="0 0 47 89" fill="none" xmlns="http://www.w3.org/2000/svg">
<g clip-path="url(#clip0_9_86)">
<path d="M41.7778 0H5.22222C2.88267 0 0 2.89528 0 5.5625V83.4347C0 85.9601 2.72339 89 5.22222 89H41.7778C44.2583 89 47 86.152 47 83.4347V5.5625C47 2.89528 44.1983 0 41.7778 0Z" fill="#D76733"/>
<g filter="url(#filter0_d_9_86)">
<rect x="2.28027" y="2.60229" width="42.4394" height="18.622" rx="4.5" stroke="#D76733" shape-rendering="crispEdges"/>
</g>
<g filter="url(#filter1_d_9_86)">
<path d="M14.5984 15.4173C16.5649 15.4173 18.1591 13.8485 18.1591 11.9134C18.1591 9.97819 16.5649 8.40942 14.5984 8.40942C12.632 8.40942 11.0378 9.97819 11.0378 11.9134C11.0378 13.8485 12.632 15.4173 14.5984 15.4173Z" fill="#232323"/>
<path d="M14.5984 8.55981C16.4843 8.55981 18.0095 10.0633 18.0095 11.9133C18.0095 13.7634 16.4843 15.2668 14.5984 15.2668C12.7125 15.2668 11.1882 13.7634 11.1882 11.9133C11.1882 10.0633 12.7125 8.55985 14.5984 8.55981Z" stroke="#D76733" stroke-width="0.3"/>
</g>
<g filter="url(#filter2_d_9_86)">
<path d="M40.9469 19.622C42.1268 19.622 43.0833 18.6807 43.0833 17.5196C43.0833 16.3585 42.1268 15.4172 40.9469 15.4172C39.767 15.4172 38.8105 16.3585 38.8105 17.5196C38.8105 18.6807 39.767 19.622 40.9469 19.622Z" fill="#232323"/>
<path d="M40.9473 15.5676C42.0464 15.5678 42.9336 16.4439 42.9336 17.5198C42.9335 18.5956 42.0464 19.4717 40.9473 19.4719C39.848 19.4719 38.961 18.5957 38.9609 17.5198C38.9609 16.4438 39.8479 15.5676 40.9473 15.5676Z" stroke="#D76733" stroke-width="0.3"/>
</g>
<g filter="url(#filter3_d_9_86)">
<path d="M40.9469 8.40956C42.1268 8.40956 43.0833 7.4683 43.0833 6.3072C43.0833 5.14609 42.1268 4.20483 40.9469 4.20483C39.767 4.20483 38.8105 5.14609 38.8105 6.3072C38.8105 7.4683 39.767 8.40956 40.9469 8.40956Z" fill="#C5C5C5"/>
<path d="M40.9473 4.35522C42.0464 4.35541 42.9336 5.23149 42.9336 6.30737C42.9335 7.38318 42.0464 8.25933 40.9473 8.25952C39.848 8.25952 38.961 7.38329 38.9609 6.30737C38.9609 5.23137 39.8479 4.35522 40.9473 4.35522Z" stroke="#D76733" stroke-width="0.3"/>
</g>
<g filter="url(#filter4_d_9_86)">
<path d="M6.7652 20.3228C8.73166 20.3228 10.3258 18.754 10.3258 16.8189C10.3258 14.8837 8.73166 13.3149 6.7652 13.3149C4.79873 13.3149 3.20459 14.8837 3.20459 16.8189C3.20459 18.754 4.79873 20.3228 6.7652 20.3228Z" fill="#232323"/>
<path d="M6.76514 13.4653C8.65103 13.4653 10.1763 14.9688 10.1763 16.8188C10.1763 18.6689 8.65104 20.1724 6.76514 20.1724C4.87926 20.1723 3.35498 18.6689 3.35498 16.8188C3.355 14.9688 4.87927 13.4654 6.76514 13.4653Z" stroke="#D76733" stroke-width="0.3"/>
</g>
<g filter="url(#filter5_d_9_86)">
<path d="M6.7652 10.5118C8.73166 10.5118 10.3258 8.94301 10.3258 7.00784C10.3258 5.07267 8.73166 3.50391 6.7652 3.50391C4.79873 3.50391 3.20459 5.07267 3.20459 7.00784C3.20459 8.94301 4.79873 10.5118 6.7652 10.5118Z" fill="#232323"/>
<path d="M6.76514 3.6543C8.65103 3.6543 10.1763 5.15776 10.1763 7.00781C10.1763 8.85788 8.65104 10.3613 6.76514 10.3613C4.87926 10.3613 3.35498 8.85786 3.35498 7.00781C3.355 5.15778 4.87927 3.65433 6.76514 3.6543Z" stroke="#D76733" stroke-width="0.3"/>
</g>
<rect x="1.78027" y="23.8267" width="43.4394" height="63.7717" rx="7" fill="#FA8A48"/>
<path fill-rule="evenodd" clip-rule="evenodd" d="M26.268 49.7559C25.526 49.7811 24.6265 50.1571 24.0953 50.6644C23.6149 51.1136 23.1985 51.8328 23.3106 52.5218C24.1407 52.5748 24.9841 52.1786 25.4993 51.6713C26.0117 51.1666 26.3614 50.46 26.268 49.7559ZM26.1692 57.3268C26.1692 54.3287 28.4353 54.2 28.494 54.1596C28.2237 53.7925 27.8665 53.49 27.4509 53.2762C27.0353 53.0624 26.5727 52.9432 26.0998 52.9281C25.0775 52.8272 24.106 53.4984 23.5882 53.4984C23.073 53.4984 22.2723 52.9407 21.4235 52.9559C20.8664 52.9704 20.323 53.1222 19.8469 53.3962C19.3709 53.6702 18.9787 54.0568 18.709 54.518C17.5506 56.4259 18.4128 59.2499 19.5418 60.7943C20.0943 61.5514 20.7482 62.4019 21.6104 62.3691C22.4431 62.3388 22.7581 61.8593 23.7617 61.8593C24.7653 61.8593 25.0455 62.3691 25.9263 62.3565C26.8205 62.3388 27.3863 61.5817 27.9335 60.8246C28.5661 59.9464 28.825 59.0959 28.841 59.053C28.8196 59.0455 26.1692 59.212 26.1692 57.3268Z" fill="#E67130"/>
</g>
<defs>
<filter id="filter0_d_9_86" x="-4.41973" y="-4.0977" width="55.8395" height="32.0221" filterUnits="userSpaceOnUse" color-interpolation-filters="sRGB">
<feFlood flood-opacity="0" result="BackgroundImageFix"/>
<feColorMatrix in="SourceAlpha" type="matrix" values="0 0 0 0 0 0 0 0 0 0 0 0 0 0 0 0 0 0 127 0" result="hardAlpha"/>
<feOffset/>
<feGaussianBlur stdDeviation="3.1"/>
<feComposite in2="hardAlpha" operator="out"/>
<feColorMatrix type="matrix" values="0 0 0 0 0 0 0 0 0 0 0 0 0 0 0 0 0 0 0.7 0"/>
<feBlend mode="normal" in2="BackgroundImageFix" result="effect1_dropShadow_9_86"/>
<feBlend mode="normal" in="SourceGraphic" in2="effect1_dropShadow_9_86" result="shape"/>
</filter>
<filter id="filter1_d_9_86" x="7.03784" y="4.40942" width="15.1211" height="15.0078" filterUnits="userSpaceOnUse" color-interpolation-filters="sRGB">
<feFlood flood-opacity="0" result="BackgroundImageFix"/>
<feColorMatrix in="SourceAlpha" type="matrix" values="0 0 0 0 0 0 0 0 0 0 0 0 0 0 0 0 0 0 127 0" result="hardAlpha"/>
<feOffset/>
<feGaussianBlur stdDeviation="2"/>
<feComposite in2="hardAlpha" operator="out"/>
<feColorMatrix type="matrix" values="0 0 0 0 0 0 0 0 0 0 0 0 0 0 0 0 0 0 0.5 0"/>
<feBlend mode="normal" in2="BackgroundImageFix" result="effect1_dropShadow_9_86"/>
<feBlend mode="normal" in="SourceGraphic" in2="effect1_dropShadow_9_86" result="shape"/>
</filter>
<filter id="filter2_d_9_86" x="34.8105" y="11.4172" width="12.2727" height="12.2048" filterUnits="userSpaceOnUse" color-interpolation-filters="sRGB">
<feFlood flood-opacity="0" result="BackgroundImageFix"/>
<feColorMatrix in="SourceAlpha" type="matrix" values="0 0 0 0 0 0 0 0 0 0 0 0 0 0 0 0 0 0 127 0" result="hardAlpha"/>
<feOffset/>
<feGaussianBlur stdDeviation="2"/>
<feComposite in2="hardAlpha" operator="out"/>
<feColorMatrix type="matrix" values="0 0 0 0 0 0 0 0 0 0 0 0 0 0 0 0 0 0 0.5 0"/>
<feBlend mode="normal" in2="BackgroundImageFix" result="effect1_dropShadow_9_86"/>
<feBlend mode="normal" in="SourceGraphic" in2="effect1_dropShadow_9_86" result="shape"/>
</filter>
<filter id="filter3_d_9_86" x="34.8105" y="0.204834" width="12.2727" height="12.2048" filterUnits="userSpaceOnUse" color-interpolation-filters="sRGB">
<feFlood flood-opacity="0" result="BackgroundImageFix"/>
<feColorMatrix in="SourceAlpha" type="matrix" values="0 0 0 0 0 0 0 0 0 0 0 0 0 0 0 0 0 0 127 0" result="hardAlpha"/>
<feOffset/>
<feGaussianBlur stdDeviation="2"/>
<feComposite in2="hardAlpha" operator="out"/>
<feColorMatrix type="matrix" values="0 0 0 0 0 0 0 0 0 0 0 0 0 0 0 0 0 0 0.5 0"/>
<feBlend mode="normal" in2="BackgroundImageFix" result="effect1_dropShadow_9_86"/>
<feBlend mode="normal" in="SourceGraphic" in2="effect1_dropShadow_9_86" result="shape"/>
</filter>
<filter id="filter4_d_9_86" x="-0.79541" y="9.31494" width="15.1211" height="15.0078" filterUnits="userSpaceOnUse" color-interpolation-filters="sRGB">
<feFlood flood-opacity="0" result="BackgroundImageFix"/>
<feColorMatrix in="SourceAlpha" type="matrix" values="0 0 0 0 0 0 0 0 0 0 0 0 0 0 0 0 0 0 127 0" result="hardAlpha"/>
<feOffset/>
<feGaussianBlur stdDeviation="2"/>
<feComposite in2="hardAlpha" operator="out"/>
<feColorMatrix type="matrix" values="0 0 0 0 0 0 0 0 0 0 0 0 0 0 0 0 0 0 0.5 0"/>
<feBlend mode="normal" in2="BackgroundImageFix" result="effect1_dropShadow_9_86"/>
<feBlend mode="normal" in="SourceGraphic" in2="effect1_dropShadow_9_86" result="shape"/>
</filter>
<filter id="filter5_d_9_86" x="-0.79541" y="-0.496094" width="15.1211" height="15.0078" filterUnits="userSpaceOnUse" color-interpolation-filters="sRGB">
<feFlood flood-opacity="0" result="BackgroundImageFix"/>
<feColorMatrix in="SourceAlpha" type="matrix" values="0 0 0 0 0 0 0 0 0 0 0 0 0 0 0 0 0 0 127 0" result="hardAlpha"/>
<feOffset/>
<feGaussianBlur stdDeviation="2"/>
<feComposite in2="hardAlpha" operator="out"/>
<feColorMatrix type="matrix" values="0 0 0 0 0 0 0 0 0 0 0 0 0 0 0 0 0 0 0.5 0"/>
<feBlend mode="normal" in2="BackgroundImageFix" result="effect1_dropShadow_9_86"/>
<feBlend mode="normal" in="SourceGraphic" in2="effect1_dropShadow_9_86" result="shape"/>
</filter>
<clipPath id="clip0_9_86">
<rect width="47" height="89" fill="white"/>
</clipPath>
</defs>
</svg>
