<svg width="47" height="89" viewBox="0 0 47 89" fill="none" xmlns="http://www.w3.org/2000/svg">
<g clip-path="url(#clip0_23_228)">
<path d="M41.7778 0H5.22222C2.88267 0 0 2.89528 0 5.5625V83.4347C0 85.9601 2.72339 89 5.22222 89H41.7778C44.2583 89 47 86.152 47 83.4347V5.5625C47 2.89528 44.1983 0 41.7778 0Z" fill="#96AAF5"/>
<path fill-rule="evenodd" clip-rule="evenodd" d="M26.268 41C25.526 41.0252 24.6265 41.4013 24.0953 41.9085C23.6149 42.3577 23.1985 43.077 23.3106 43.7659C24.1407 43.8189 24.9841 43.4227 25.4993 42.9155C26.0117 42.4107 26.3614 41.7041 26.268 41ZM26.1692 48.571C26.1692 45.5729 28.4353 45.4442 28.494 45.4038C28.2237 45.0366 27.8665 44.7342 27.4509 44.5204C27.0353 44.3066 26.5727 44.1874 26.0998 44.1722C25.0775 44.0713 24.106 44.7426 23.5882 44.7426C23.073 44.7426 22.2723 44.1849 21.4235 44.2C20.8664 44.2146 20.323 44.3664 19.8469 44.6403C19.3709 44.9143 18.9787 45.301 18.709 45.7621C17.5506 47.67 18.4128 50.494 19.5418 52.0385C20.0943 52.7956 20.7482 53.6461 21.6104 53.6133C22.4431 53.583 22.7581 53.1035 23.7617 53.1035C24.7653 53.1035 25.0455 53.6133 25.9263 53.6006C26.8205 53.583 27.3863 52.8259 27.9335 52.0688C28.5661 51.1905 28.825 50.3401 28.841 50.2972C28.8196 50.2896 26.1692 50.4562 26.1692 48.571Z" fill="#7185E0"/>
<g filter="url(#filter0_d_23_228)">
<g clip-path="url(#clip1_23_228)">
<rect x="16" y="2" width="24" height="14" rx="7" transform="rotate(90 16 2)" fill="#526BEE"/>
<g filter="url(#filter1_d_23_228)">
<rect x="15" y="3" width="22" height="12" rx="6" transform="rotate(90 15 3)" fill="#4C49E5"/>
</g>
<g filter="url(#filter2_d_23_228)">
<path d="M5 9C5 11.2091 6.79086 13 9 13C11.2091 13 13 11.2091 13 9C13 6.79086 11.2091 5 9 5C6.79086 5 5 6.79086 5 9Z" fill="black"/>
<path d="M12.8496 9C12.8496 11.1263 11.1263 12.8496 9 12.8496C6.8737 12.8496 5.15039 11.1263 5.15039 9C5.15039 6.8737 6.8737 5.15039 9 5.15039C11.1263 5.15039 12.8496 6.8737 12.8496 9Z" stroke="#6278DE" stroke-width="0.3"/>
</g>
<g filter="url(#filter3_d_23_228)">
<path d="M5 19C5 21.2091 6.79086 23 9 23C11.2091 23 13 21.2091 13 19C13 16.7909 11.2091 15 9 15C6.79086 15 5 16.7909 5 19Z" fill="black"/>
<path d="M12.8496 19C12.8496 21.1263 11.1263 22.8496 9 22.8496C6.8737 22.8496 5.15039 21.1263 5.15039 19C5.15039 16.8737 6.8737 15.1504 9 15.1504C11.1263 15.1504 12.8496 16.8737 12.8496 19Z" stroke="#6278DE" stroke-width="0.3"/>
</g>
<path d="M12 14C12 14.5523 12.4477 15 13 15C13.5523 15 14 14.5523 14 14C14 13.4477 13.5523 13 13 13C12.4477 13 12 13.4477 12 14Z" fill="#515151"/>
</g>
</g>
<path d="M17 14C17 15.1046 17.8954 16 19 16C20.1046 16 21 15.1046 21 14C21 12.8954 20.1046 12 19 12C17.8954 12 17 12.8954 17 14Z" fill="#DEDEDE"/>
</g>
<defs>
<filter id="filter0_d_23_228" x="2" y="2" width="14" height="24" filterUnits="userSpaceOnUse" color-interpolation-filters="sRGB">
<feFlood flood-opacity="0" result="BackgroundImageFix"/>
<feColorMatrix in="SourceAlpha" type="matrix" values="0 0 0 0 0 0 0 0 0 0 0 0 0 0 0 0 0 0 127 0" result="hardAlpha"/>
<feMorphology radius="153" operator="erode" in="SourceAlpha" result="effect1_dropShadow_23_228"/>
<feOffset/>
<feGaussianBlur stdDeviation="0.5"/>
<feComposite in2="hardAlpha" operator="out"/>
<feColorMatrix type="matrix" values="0 0 0 0 0 0 0 0 0 0 0 0 0 0 0 0 0 0 0.34 0"/>
<feBlend mode="normal" in2="BackgroundImageFix" result="effect1_dropShadow_23_228"/>
<feBlend mode="normal" in="SourceGraphic" in2="effect1_dropShadow_23_228" result="shape"/>
</filter>
<filter id="filter1_d_23_228" x="2" y="2" width="14" height="24" filterUnits="userSpaceOnUse" color-interpolation-filters="sRGB">
<feFlood flood-opacity="0" result="BackgroundImageFix"/>
<feColorMatrix in="SourceAlpha" type="matrix" values="0 0 0 0 0 0 0 0 0 0 0 0 0 0 0 0 0 0 127 0" result="hardAlpha"/>
<feOffset/>
<feGaussianBlur stdDeviation="0.5"/>
<feComposite in2="hardAlpha" operator="out"/>
<feColorMatrix type="matrix" values="0 0 0 0 0 0 0 0 0 0 0 0 0 0 0 0 0 0 0.7 0"/>
<feBlend mode="normal" in2="BackgroundImageFix" result="effect1_dropShadow_23_228"/>
<feBlend mode="normal" in="SourceGraphic" in2="effect1_dropShadow_23_228" result="shape"/>
</filter>
<filter id="filter2_d_23_228" x="4" y="4" width="10" height="10" filterUnits="userSpaceOnUse" color-interpolation-filters="sRGB">
<feFlood flood-opacity="0" result="BackgroundImageFix"/>
<feColorMatrix in="SourceAlpha" type="matrix" values="0 0 0 0 0 0 0 0 0 0 0 0 0 0 0 0 0 0 127 0" result="hardAlpha"/>
<feOffset/>
<feGaussianBlur stdDeviation="0.5"/>
<feComposite in2="hardAlpha" operator="out"/>
<feColorMatrix type="matrix" values="0 0 0 0 0 0 0 0 0 0 0 0 0 0 0 0 0 0 0.5 0"/>
<feBlend mode="normal" in2="BackgroundImageFix" result="effect1_dropShadow_23_228"/>
<feBlend mode="normal" in="SourceGraphic" in2="effect1_dropShadow_23_228" result="shape"/>
</filter>
<filter id="filter3_d_23_228" x="4" y="14" width="10" height="10" filterUnits="userSpaceOnUse" color-interpolation-filters="sRGB">
<feFlood flood-opacity="0" result="BackgroundImageFix"/>
<feColorMatrix in="SourceAlpha" type="matrix" values="0 0 0 0 0 0 0 0 0 0 0 0 0 0 0 0 0 0 127 0" result="hardAlpha"/>
<feOffset/>
<feGaussianBlur stdDeviation="0.5"/>
<feComposite in2="hardAlpha" operator="out"/>
<feColorMatrix type="matrix" values="0 0 0 0 0 0 0 0 0 0 0 0 0 0 0 0 0 0 0.5 0"/>
<feBlend mode="normal" in2="BackgroundImageFix" result="effect1_dropShadow_23_228"/>
<feBlend mode="normal" in="SourceGraphic" in2="effect1_dropShadow_23_228" result="shape"/>
</filter>
<clipPath id="clip0_23_228">
<rect width="47" height="89" fill="white"/>
</clipPath>
<clipPath id="clip1_23_228">
<rect x="16" y="2" width="24" height="14" rx="7" transform="rotate(90 16 2)" fill="white"/>
</clipPath>
</defs>
</svg>
