<svg width="47" height="89" viewBox="0 0 47 89" fill="none" xmlns="http://www.w3.org/2000/svg">
<g clip-path="url(#clip0_11_427)">
<path d="M41.7778 0H5.22222C2.88267 0 0 2.89528 0 5.5625V83.4347C0 85.9601 2.72339 89 5.22222 89H41.7778C44.2583 89 47 86.152 47 83.4347V5.5625C47 2.89528 44.1983 0 41.7778 0Z" fill="#EFEFEF"/>
<path fill-rule="evenodd" clip-rule="evenodd" d="M26.268 45C25.526 45.0252 24.6265 45.4013 24.0953 45.9085C23.6149 46.3577 23.1985 47.077 23.3106 47.7659C24.1407 47.8189 24.9841 47.4227 25.4993 46.9155C26.0117 46.4107 26.3614 45.7041 26.268 45ZM26.1692 52.571C26.1692 49.5729 28.4353 49.4442 28.494 49.4038C28.2237 49.0366 27.8665 48.7342 27.4509 48.5204C27.0353 48.3066 26.5727 48.1874 26.0998 48.1722C25.0775 48.0713 24.106 48.7426 23.5882 48.7426C23.073 48.7426 22.2723 48.1849 21.4235 48.2C20.8664 48.2146 20.323 48.3664 19.8469 48.6403C19.3709 48.9143 18.9787 49.301 18.709 49.7621C17.5506 51.67 18.4128 54.494 19.5418 56.0385C20.0943 56.7956 20.7482 57.6461 21.6104 57.6133C22.4431 57.583 22.7581 57.1035 23.7617 57.1035C24.7653 57.1035 25.0455 57.6133 25.9263 57.6006C26.8205 57.583 27.3863 56.8259 27.9335 56.0688C28.5661 55.1905 28.825 54.3401 28.841 54.2972C28.8196 54.2896 26.1692 54.4562 26.1692 52.571Z" fill="#D1D1D1"/>
<g filter="url(#filter0_d_11_427)">
<g clip-path="url(#clip1_11_427)">
<rect x="2" y="3" width="43" height="14" rx="7" fill="#D8D8D8"/>
<g filter="url(#filter1_d_11_427)">
<path d="M8 15C10.7614 15 13 12.7614 13 10C13 7.23858 10.7614 5 8 5C5.23858 5 3 7.23858 3 10C3 12.7614 5.23858 15 8 15Z" fill="black"/>
<path d="M8 5.15039C10.6786 5.15039 12.8496 7.32142 12.8496 10C12.8496 12.6786 10.6786 14.8496 8 14.8496C5.32142 14.8496 3.15039 12.6786 3.15039 10C3.15039 7.32142 5.32142 5.15039 8 5.15039Z" stroke="#1D1D1D" stroke-width="0.3"/>
</g>
<g filter="url(#filter2_d_11_427)">
<path d="M37.5 9.5C37.7761 9.5 38 9.72386 38 10C38 10.2761 37.7761 10.5 37.5 10.5C37.2239 10.5 37 10.2761 37 10C37 9.72386 37.2239 9.5 37.5 9.5Z" fill="#828282"/>
</g>
<g filter="url(#filter3_d_11_427)">
<path d="M41.8637 12.1024C43.0435 12.1024 44 11.1612 44 10.0001C44 8.83896 43.0435 7.89771 41.8637 7.89771C40.6838 7.89771 39.7273 8.83896 39.7273 10.0001C39.7273 11.1612 40.6838 12.1024 41.8637 12.1024Z" fill="#C5C5C5"/>
<path d="M41.864 8.0481C42.9632 8.04828 43.8503 8.92436 43.8503 10.0002C43.8502 11.076 42.9631 11.9522 41.864 11.9524C40.7648 11.9524 39.8778 11.0762 39.8777 10.0002C39.8777 8.92424 40.7647 8.0481 41.864 8.0481Z" stroke="#1D1D1D" stroke-width="0.3"/>
</g>
</g>
</g>
</g>
<defs>
<filter id="filter0_d_11_427" x="-2" y="-1" width="51" height="22" filterUnits="userSpaceOnUse" color-interpolation-filters="sRGB">
<feFlood flood-opacity="0" result="BackgroundImageFix"/>
<feColorMatrix in="SourceAlpha" type="matrix" values="0 0 0 0 0 0 0 0 0 0 0 0 0 0 0 0 0 0 127 0" result="hardAlpha"/>
<feOffset/>
<feGaussianBlur stdDeviation="2"/>
<feComposite in2="hardAlpha" operator="out"/>
<feColorMatrix type="matrix" values="0 0 0 0 0 0 0 0 0 0 0 0 0 0 0 0 0 0 0.7 0"/>
<feBlend mode="normal" in2="BackgroundImageFix" result="effect1_dropShadow_11_427"/>
<feBlend mode="normal" in="SourceGraphic" in2="effect1_dropShadow_11_427" result="shape"/>
</filter>
<filter id="filter1_d_11_427" x="-1" y="1" width="18" height="18" filterUnits="userSpaceOnUse" color-interpolation-filters="sRGB">
<feFlood flood-opacity="0" result="BackgroundImageFix"/>
<feColorMatrix in="SourceAlpha" type="matrix" values="0 0 0 0 0 0 0 0 0 0 0 0 0 0 0 0 0 0 127 0" result="hardAlpha"/>
<feOffset/>
<feGaussianBlur stdDeviation="2"/>
<feComposite in2="hardAlpha" operator="out"/>
<feColorMatrix type="matrix" values="0 0 0 0 0 0 0 0 0 0 0 0 0 0 0 0 0 0 0.5 0"/>
<feBlend mode="normal" in2="BackgroundImageFix" result="effect1_dropShadow_11_427"/>
<feBlend mode="normal" in="SourceGraphic" in2="effect1_dropShadow_11_427" result="shape"/>
</filter>
<filter id="filter2_d_11_427" x="33" y="5.5" width="9" height="9" filterUnits="userSpaceOnUse" color-interpolation-filters="sRGB">
<feFlood flood-opacity="0" result="BackgroundImageFix"/>
<feColorMatrix in="SourceAlpha" type="matrix" values="0 0 0 0 0 0 0 0 0 0 0 0 0 0 0 0 0 0 127 0" result="hardAlpha"/>
<feOffset/>
<feGaussianBlur stdDeviation="2"/>
<feComposite in2="hardAlpha" operator="out"/>
<feColorMatrix type="matrix" values="0 0 0 0 0 0 0 0 0 0 0 0 0 0 0 0 0 0 0.5 0"/>
<feBlend mode="normal" in2="BackgroundImageFix" result="effect1_dropShadow_11_427"/>
<feBlend mode="normal" in="SourceGraphic" in2="effect1_dropShadow_11_427" result="shape"/>
</filter>
<filter id="filter3_d_11_427" x="35.7273" y="3.89771" width="12.2727" height="12.2048" filterUnits="userSpaceOnUse" color-interpolation-filters="sRGB">
<feFlood flood-opacity="0" result="BackgroundImageFix"/>
<feColorMatrix in="SourceAlpha" type="matrix" values="0 0 0 0 0 0 0 0 0 0 0 0 0 0 0 0 0 0 127 0" result="hardAlpha"/>
<feOffset/>
<feGaussianBlur stdDeviation="2"/>
<feComposite in2="hardAlpha" operator="out"/>
<feColorMatrix type="matrix" values="0 0 0 0 0 0 0 0 0 0 0 0 0 0 0 0 0 0 0.5 0"/>
<feBlend mode="normal" in2="BackgroundImageFix" result="effect1_dropShadow_11_427"/>
<feBlend mode="normal" in="SourceGraphic" in2="effect1_dropShadow_11_427" result="shape"/>
</filter>
<clipPath id="clip0_11_427">
<rect width="47" height="89" fill="white"/>
</clipPath>
<clipPath id="clip1_11_427">
<rect x="2" y="3" width="43" height="14" rx="7" fill="white"/>
</clipPath>
</defs>
</svg>
